<?xml version="1.0" standalone="no"?>
<!DOCTYPE svg PUBLIC "-//W3C//DTD SVG 20010904//EN"
 "http://www.w3.org/TR/2001/REC-SVG-20010904/DTD/svg10.dtd">
<svg version="1.0" xmlns="http://www.w3.org/2000/svg"
 width="837.000000pt" height="281.000000pt" viewBox="0 0 837.000000 281.000000"
 preserveAspectRatio="xMidYMid meet">

<g transform="translate(0.000000,281.000000) scale(0.100000,-0.100000)"
fill="#000000" stroke="none">
<path d="M5766 2378 c-110 -237 -83 -530 75 -827 112 -209 276 -406 397 -476
28 -16 50 -35 47 -42 -2 -6 -26 -43 -54 -81 -42 -57 -57 -71 -93 -81 -171 -51
-295 -181 -306 -323 -6 -83 4 -124 44 -168 87 -97 213 -88 323 21 73 73 107
159 118 299 6 80 9 89 52 152 25 37 48 67 51 68 3 0 29 -34 58 -75 50 -72 52
-77 52 -142 0 -116 34 -210 102 -288 95 -108 212 -132 311 -63 74 52 94 183
45 289 -48 104 -136 179 -264 224 -62 22 -69 27 -121 100 -30 42 -54 77 -52
79 2 1 26 15 52 30 206 118 464 516 522 805 24 116 17 318 -14 416 -26 81 -69
161 -81 148 -4 -4 -142 -265 -306 -580 -164 -314 -301 -570 -305 -567 -4 2
-140 260 -304 574 -163 314 -301 573 -306 576 -5 3 -25 -27 -43 -68z m399
-1634 c21 -9 45 -56 45 -92 0 -75 -55 -167 -125 -207 -53 -31 -86 -32 -122 -1
-24 21 -28 31 -27 78 1 128 135 258 229 222z m620 -19 c97 -56 150 -187 110
-265 -58 -112 -257 33 -259 188 -1 47 3 57 27 78 36 31 69 30 122 -1z"/>
<path d="M3872 2247 l-192 -192 0 -878 0 -877 768 2 767 3 0 1065 0 1065 -575
3 -575 2 -193 -193z m1268 -877 l0 -1000 -695 0 -695 0 0 815 0 815 180 0 180
0 0 178 c0 98 3 182 7 185 3 4 235 7 515 7 l508 0 0 -1000z m-1100 820 l0
-120 -115 0 c-63 0 -115 3 -115 7 0 7 221 233 227 233 2 0 3 -54 3 -120z"/>
<path d="M2182 2165 l-101 -74 -91 -3 -92 -3 286 -262 285 -263 35 43 34 42
-15 115 -16 115 43 99 c41 94 42 99 24 110 -10 6 -80 43 -155 83 l-136 72
-101 -74z"/>
<path d="M1261 1976 c-65 -88 -117 -162 -116 -164 1 -1 107 -14 236 -27 l234
-26 222 -100 221 -99 178 2 177 3 -288 264 -288 264 -186 18 c-102 10 -205 20
-229 22 l-42 5 -119 -162z"/>
<path d="M2583 1958 l-41 -93 17 -108 16 -108 335 -173 c184 -96 337 -172 339
-170 2 1 -52 104 -119 227 l-122 224 -165 94 c-161 91 -166 95 -192 147 l-27
54 -41 -94z"/>
<path d="M960 1746 c-57 -18 -106 -38 -108 -44 -3 -9 48 -266 64 -325 3 -9 47
-48 99 -86 105 -78 99 -64 111 -246 l6 -100 71 -97 c41 -58 77 -98 87 -98 10
0 78 14 152 30 l134 31 188 -107 c103 -58 188 -104 190 -103 1 2 22 48 46 102
l43 97 -63 218 -63 217 -158 245 -159 246 -262 27 c-145 15 -265 27 -268 27
-3 -1 -52 -16 -110 -34z"/>
<path d="M1717 1612 c30 -48 95 -148 143 -222 l88 -135 62 -215 c34 -118 64
-216 65 -218 4 -4 449 38 453 43 2 1 -97 96 -220 210 l-223 208 -25 124 -25
124 -155 70 c-85 39 -169 77 -187 84 l-32 14 56 -87z"/>
<path d="M2523 1571 l-32 -38 136 -319 c74 -176 139 -323 143 -328 5 -4 30 7
57 25 41 29 65 36 162 51 62 9 115 18 116 20 7 7 135 281 133 284 -9 8 -666
344 -674 344 -5 0 -23 -18 -41 -39z"/>
<path d="M2080 1506 c0 -10 7 -58 16 -108 l17 -89 216 -203 c119 -112 225
-208 236 -213 23 -12 165 -28 165 -19 0 4 -61 150 -136 326 l-136 319 -189 3
c-179 3 -189 2 -189 -16z"/>
<path d="M2248 800 c-93 -9 -170 -19 -173 -21 -2 -3 -22 -45 -44 -94 -27 -60
-36 -91 -28 -93 18 -4 369 66 377 75 20 24 98 121 109 136 12 16 10 17 -30 16
-24 -1 -119 -9 -211 -19z"/>
</g>
</svg>
